<svg id="Layer_1" data-name="Layer 1" xmlns="http://www.w3.org/2000/svg" xmlns:xlink="http://www.w3.org/1999/xlink" viewBox="0 0 86.03 74.07"><defs><style>.cls-1{fill:url(#linear-gradient);}.cls-2{fill:url(#linear-gradient-2);}.cls-3{fill:url(#linear-gradient-3);}.cls-4{fill:url(#linear-gradient-5);}.cls-5{fill:url(#linear-gradient-7);}.cls-6{fill:url(#linear-gradient-9);}</style><linearGradient id="linear-gradient" x1="1793.02" y1="-1196.97" x2="2116.93" y2="-1196.97" gradientTransform="matrix(0.13, 0, 0, -0.13, 0.59, 141.86)" gradientUnits="userSpaceOnUse"><stop offset="0" stop-color="#06b1e4"/><stop offset="1" stop-color="#1b3d6e"/></linearGradient><linearGradient id="linear-gradient-2" x1="2157.86" y1="-1191.06" x2="2469.99" y2="-1191.06" xlink:href="#linear-gradient"/><linearGradient id="linear-gradient-3" x1="2010.15" y1="-1137.65" x2="2252.46" y2="-1137.65" xlink:href="#linear-gradient"/><linearGradient id="linear-gradient-5" x1="2134.58" y1="-1026.26" x2="2374.08" y2="-1026.26" xlink:href="#linear-gradient"/><linearGradient id="linear-gradient-7" x1="1900.92" y1="-1026.32" x2="2115.51" y2="-1026.32" xlink:href="#linear-gradient"/><linearGradient id="linear-gradient-9" x1="2001.95" y1="-878.44" x2="2260.57" y2="-878.44" xlink:href="#linear-gradient"/></defs><title>fav</title><path class="cls-1" d="M269.61,307.23l-6.09,6.07a8.34,8.34,0,0,1-11.81,0l-20.82-20.82a8.37,8.37,0,0,1,0-11.82l8.48-8.47a11.93,11.93,0,0,0,3.51,8.3Z" transform="translate(-228.45 -241.68)"/><path class="cls-2" d="M312,291,291.21,311.8a8.35,8.35,0,0,1-11.82,0l-4.58-4.57,5.91-5.92,6.23-6.22h0L288,294l13.5-13.51a11.93,11.93,0,0,0,3.51-8.31l7,7A8.37,8.37,0,0,1,312,291Z" transform="translate(-228.45 -241.68)"/><path class="cls-3" d="M284.49,292.88l-.25.25h0l-6.36,6.35-5.66,5.67-13.89-13.9a8,8,0,0,1,0-11.27l10.11-10.11,1.64-1.63h0l.52-.53.56.57.21.21,1.38,1.38,11.7,11.69A8,8,0,0,1,284.49,292.88Z" transform="translate(-228.45 -241.68)"/><path class="cls-3" d="M284.49,292.88l-.25.25h0l-6.36,6.35-5.66,5.67-13.89-13.9a8,8,0,0,1,0-11.27l10.11-10.11,1.64-1.63h0l.52-.53.56.57.21.21,1.38,1.38,11.7,11.69A8,8,0,0,1,284.49,292.88Z" transform="translate(-228.45 -241.68)"/><path class="cls-4" d="M300,277.42,288.38,289a9.73,9.73,0,0,0-2.68-8.64L274,268.66l-1.12-1.13h0l-.26-.26-.77-.76,1-1h0l1.12-1.13,6.45-6.44a8,8,0,0,1,11.31,0l.25.25h0l8,8A8,8,0,0,1,300,277.42Z" transform="translate(-228.45 -241.68)"/><path class="cls-4" d="M300,277.42,288.38,289a9.73,9.73,0,0,0-2.68-8.64L274,268.66l-1.12-1.13h0l-.26-.26-.77-.76,1-1h0l1.12-1.13,6.45-6.44a8,8,0,0,1,11.31,0l.25.25h0l8,8A8,8,0,0,1,300,277.42Z" transform="translate(-228.45 -241.68)"/><path class="cls-5" d="M269.43,266.51l-1,1h0l-1.13,1.13-10.12,10.11a9.71,9.71,0,0,0-2.67,8.64l-10-10a8,8,0,0,1,0-11.3l6.65-6.65a8,8,0,0,1,11.29,0Z" transform="translate(-228.45 -241.68)"/><path class="cls-5" d="M269.43,266.51l-1,1h0l-1.13,1.13-10.12,10.11a9.71,9.71,0,0,0-2.67,8.64l-10-10a8,8,0,0,1,0-11.3l6.65-6.65a8,8,0,0,1,11.29,0Z" transform="translate(-228.45 -241.68)"/><path class="cls-6" d="M287.86,254a10.19,10.19,0,0,0-1.76-.16,9.61,9.61,0,0,0-6.86,2.85l-6.45,6.44-1.63,1.63h0l-.52.53-7-7a9.69,9.69,0,0,0-6.87-2.84,9.29,9.29,0,0,0-1.76.16l2.58-2.59,9-9a8,8,0,0,1,11.31,0l9.5,9.5Z" transform="translate(-228.45 -241.68)"/><path class="cls-6" d="M287.86,254a10.19,10.19,0,0,0-1.76-.16,9.61,9.61,0,0,0-6.86,2.85l-6.45,6.44-1.63,1.63h0l-.52.53-7-7a9.69,9.69,0,0,0-6.87-2.84,9.29,9.29,0,0,0-1.76.16l2.58-2.59,9-9a8,8,0,0,1,11.31,0l9.5,9.5Z" transform="translate(-228.45 -241.68)"/></svg>