<svg id="Layer_1" data-name="Layer 1" xmlns="http://www.w3.org/2000/svg" xmlns:xlink="http://www.w3.org/1999/xlink" viewBox="0 0 421.27 74.07"><defs><style>.cls-1{fill:url(#linear-gradient);}.cls-2{fill:url(#linear-gradient-2);}.cls-3{fill:url(#linear-gradient-3);}.cls-4{fill:url(#linear-gradient-5);}.cls-5{fill:url(#linear-gradient-7);}.cls-6{fill:url(#linear-gradient-9);}.cls-7{fill:#fff;stroke-miterlimit:10;stroke:url(#linear-gradient-11);}</style><linearGradient id="linear-gradient" x1="635.55" y1="-1136.26" x2="959.46" y2="-1136.26" gradientTransform="matrix(0.13, 0, 0, -0.13, 0.59, 141.86)" gradientUnits="userSpaceOnUse"><stop offset="0" stop-color="#06b1e4"/><stop offset="1" stop-color="#1b3d6e"/></linearGradient><linearGradient id="linear-gradient-2" x1="1000.39" y1="-1130.36" x2="1312.52" y2="-1130.36" xlink:href="#linear-gradient"/><linearGradient id="linear-gradient-3" x1="852.68" y1="-1076.95" x2="1094.98" y2="-1076.95" xlink:href="#linear-gradient"/><linearGradient id="linear-gradient-5" x1="977.11" y1="-965.56" x2="1216.6" y2="-965.56" xlink:href="#linear-gradient"/><linearGradient id="linear-gradient-7" x1="743.45" y1="-965.62" x2="958.04" y2="-965.62" xlink:href="#linear-gradient"/><linearGradient id="linear-gradient-9" x1="844.48" y1="-817.74" x2="1103.1" y2="-817.74" xlink:href="#linear-gradient"/><linearGradient id="linear-gradient-11" x1="168.75" y1="277" x2="502.63" y2="277" gradientUnits="userSpaceOnUse"><stop offset="0" stop-color="#099ed1"/><stop offset="1" stop-color="#165889"/></linearGradient></defs><title>logo</title><path class="cls-1" d="M122.52,299.51l-6.09,6.08a8.35,8.35,0,0,1-11.81,0L83.8,284.77a8.37,8.37,0,0,1,0-11.82l8.48-8.48a11.94,11.94,0,0,0,3.5,8.31Z" transform="translate(-81.35 -233.97)"/><path class="cls-2" d="M164.94,283.27l-20.82,20.82a8.35,8.35,0,0,1-11.82,0l-4.58-4.58,5.91-5.91,6.23-6.23h0l1.07-1.08,13.51-13.51a11.89,11.89,0,0,0,3.5-8.31l7,7A8.35,8.35,0,0,1,164.94,283.27Z" transform="translate(-81.35 -233.97)"/><path class="cls-3" d="M137.4,285.16l-.25.25h0l-6.36,6.35-5.66,5.66-13.89-13.89a8,8,0,0,1,0-11.27l10.11-10.12,1.64-1.62h0l.52-.52.56.56.21.22,1.38,1.37,11.7,11.7A8,8,0,0,1,137.4,285.16Z" transform="translate(-81.35 -233.97)"/><path class="cls-3" d="M137.4,285.16l-.25.25h0l-6.36,6.35-5.66,5.66-13.89-13.89a8,8,0,0,1,0-11.27l10.11-10.12,1.64-1.62h0l.52-.52.56.56.21.22,1.38,1.37,11.7,11.7A8,8,0,0,1,137.4,285.16Z" transform="translate(-81.35 -233.97)"/><path class="cls-4" d="M152.86,269.7l-11.57,11.57a9.7,9.7,0,0,0-2.68-8.63l-11.7-11.7-1.13-1.12h0l-.25-.26-.77-.77,1-1h0l1.13-1.12,6.45-6.44a8,8,0,0,1,11.31,0l.25.25h0l8,8A8,8,0,0,1,152.86,269.7Z" transform="translate(-81.35 -233.97)"/><path class="cls-4" d="M152.86,269.7l-11.57,11.57a9.7,9.7,0,0,0-2.68-8.63l-11.7-11.7-1.13-1.12h0l-.25-.26-.77-.77,1-1h0l1.13-1.12,6.45-6.44a8,8,0,0,1,11.31,0l.25.25h0l8,8A8,8,0,0,1,152.86,269.7Z" transform="translate(-81.35 -233.97)"/><path class="cls-5" d="M122.34,258.79l-1,1h0l-1.13,1.12-10.11,10.12a9.71,9.71,0,0,0-2.67,8.64l-10-10a8,8,0,0,1,0-11.29l6.65-6.66a8,8,0,0,1,11.29,0Z" transform="translate(-81.35 -233.97)"/><path class="cls-5" d="M122.34,258.79l-1,1h0l-1.13,1.12-10.11,10.12a9.71,9.71,0,0,0-2.67,8.64l-10-10a8,8,0,0,1,0-11.29l6.65-6.66a8,8,0,0,1,11.29,0Z" transform="translate(-81.35 -233.97)"/><path class="cls-6" d="M140.77,246.3a9.45,9.45,0,0,0-1.76-.16,9.64,9.64,0,0,0-6.87,2.85l-6.44,6.44-1.63,1.62h0l-.52.52-7-7a9.66,9.66,0,0,0-6.87-2.85,10.38,10.38,0,0,0-1.76.16l2.59-2.58,9-9a8,8,0,0,1,11.31,0l9.5,9.5Z" transform="translate(-81.35 -233.97)"/><path class="cls-6" d="M140.77,246.3a9.45,9.45,0,0,0-1.76-.16,9.64,9.64,0,0,0-6.87,2.85l-6.44,6.44-1.63,1.62h0l-.52.52-7-7a9.66,9.66,0,0,0-6.87-2.85,10.38,10.38,0,0,0-1.76.16l2.59-2.58,9-9a8,8,0,0,1,11.31,0l9.5,9.5Z" transform="translate(-81.35 -233.97)"/><path class="cls-7" d="M186.74,280.7h0a3.16,3.16,0,0,0-1.19-2.63,14.53,14.53,0,0,0-4.2-2,39.3,39.3,0,0,1-4.92-1.95h0q-6.21-3.06-6.21-8.38h0a7.46,7.46,0,0,1,1.55-4.69,9.82,9.82,0,0,1,4.37-3.16,16.93,16.93,0,0,1,6.37-1.13h0a15,15,0,0,1,6.18,1.23,9.74,9.74,0,0,1,4.24,3.5,9.12,9.12,0,0,1,1.52,5.19h-7.68a3.87,3.87,0,0,0-1.2-3,4.66,4.66,0,0,0-3.24-1.07h0a5.24,5.24,0,0,0-3.26.91,2.76,2.76,0,0,0-1.19,2.31h0a2.81,2.81,0,0,0,1.31,2.23,16.82,16.82,0,0,0,4.63,2.06,28.42,28.42,0,0,1,5.45,2.3h0q5.17,3,5.18,8.23h0a7.82,7.82,0,0,1-3.16,6.58q-3.16,2.38-8.67,2.39h0a17.26,17.26,0,0,1-7-1.39,10.72,10.72,0,0,1-4.74-3.82,9.89,9.89,0,0,1-1.6-5.58H177a4.9,4.9,0,0,0,1.33,3.78,6.25,6.25,0,0,0,4.31,1.22h0a5,5,0,0,0,3-.82A2.76,2.76,0,0,0,186.74,280.7Zm12.53-21.15h7.4v5.9h3.9v5.13h-3.9v10.87a2.77,2.77,0,0,0,.48,1.86,2.58,2.58,0,0,0,1.91.53h0a11.73,11.73,0,0,0,1.84-.13h0V289a13.77,13.77,0,0,1-4.17.63h0q-3.81,0-5.64-1.8c-1.22-1.2-1.82-3-1.82-5.46h0V270.58h-3v-5.13h3Zm12.64,18.8,0-1.25a14,14,0,0,1,1.38-6.33,9.91,9.91,0,0,1,4-4.27,11.85,11.85,0,0,1,6.07-1.49h0a10.93,10.93,0,0,1,8.41,3.3q3.06,3.3,3.07,9h0v.26a12.33,12.33,0,0,1-3.08,8.81,11,11,0,0,1-8.35,3.26h0a11.08,11.08,0,0,1-8.14-3,11.86,11.86,0,0,1-3.32-8.24Zm7.4-2.13,0,1.34a8.85,8.85,0,0,0,1,4.83,3.43,3.43,0,0,0,3.05,1.54h0q3.94,0,4-6.08h0v-.75c0-4.26-1.36-6.38-4.08-6.38h0c-2.48,0-3.81,1.83-4,5.5Zm33.24-11-.13,6.87L250,272q-3.48,0-4.47,2.19h0v15h-7.4V265.45h6.94l.24,3.05q1.86-3.5,5.2-3.49h0a7.11,7.11,0,0,1,2.06.26Zm22.65,23.92h-7.4a8.23,8.23,0,0,1-.7-2.13h0a6.88,6.88,0,0,1-5.7,2.57h0a8.44,8.44,0,0,1-5.71-2,6.47,6.47,0,0,1-2.35-5.1h0a6.65,6.65,0,0,1,2.85-5.84c1.9-1.32,4.67-2,8.3-2h2.28v-1.25c0-2.18-.95-3.27-2.83-3.27h0a2.3,2.3,0,0,0-2.63,2.59h-7.4a6.62,6.62,0,0,1,2.93-5.6,12.24,12.24,0,0,1,7.47-2.15,10.8,10.8,0,0,1,7.18,2.22,7.73,7.73,0,0,1,2.7,6.08h0v10.51a10.57,10.57,0,0,0,1,5h0Zm-12-4.82h0a4.12,4.12,0,0,0,2.3-.6,3.75,3.75,0,0,0,1.3-1.34h0v-3.79h-2.15c-2.58,0-3.86,1.15-3.86,3.47h0a2.11,2.11,0,0,0,.68,1.63A2.44,2.44,0,0,0,263.17,284.37Zm14.24-7v-.26a15.87,15.87,0,0,1,1.19-6.37,9.47,9.47,0,0,1,3.4-4.27,9,9,0,0,1,5.16-1.5h0a7.12,7.12,0,0,1,5.79,2.5h0l.26-2.06h6.72v22.84a10.08,10.08,0,0,1-1.46,5.46,9.44,9.44,0,0,1-4.22,3.55,15.7,15.7,0,0,1-6.41,1.24h0a13.37,13.37,0,0,1-5.06-1A9.08,9.08,0,0,1,279,295h0l3.09-4.35a6.77,6.77,0,0,0,5.44,2.44h0c3.28,0,4.92-1.69,4.92-5.05h0v-.75a7,7,0,0,1-5.38,2.35h0a8.58,8.58,0,0,1-7-3.32q-2.68-3.33-2.68-8.9Zm7.42.2h0a8.4,8.4,0,0,0,1.1,4.62,3.46,3.46,0,0,0,3.07,1.7h0a3.94,3.94,0,0,0,3.49-1.61h0v-10a3.84,3.84,0,0,0-3.45-1.62h0a3.46,3.46,0,0,0-3.09,1.76A9.62,9.62,0,0,0,284.83,277.61Zm30.79,12h0a12.22,12.22,0,0,1-8.85-3.26,11.27,11.27,0,0,1-3.37-8.48h0v-.61a14.52,14.52,0,0,1,1.35-6.43,9.73,9.73,0,0,1,3.93-4.31,11.84,11.84,0,0,1,6.15-1.53h0a10.27,10.27,0,0,1,7.9,3.11c1.92,2.06,2.89,4.95,2.89,8.65h0v2.88h-14.7a5.35,5.35,0,0,0,1.74,3.14,5.12,5.12,0,0,0,3.46,1.14h0a6.66,6.66,0,0,0,5.49-2.46h0l3.38,4a9.52,9.52,0,0,1-3.92,3A13.3,13.3,0,0,1,315.62,289.63Zm-.84-18.91h0q-3.24,0-3.86,4.3h7.46v-.57a3.66,3.66,0,0,0-.9-2.76A3.59,3.59,0,0,0,314.78,270.72Zm15-11.17h7.39v5.9h3.91v5.13h-3.91v10.87a2.77,2.77,0,0,0,.48,1.86,2.59,2.59,0,0,0,1.91.53h0a11.87,11.87,0,0,0,1.85-.13h0V289a13.86,13.86,0,0,1-4.17.63h0q-3.82,0-5.64-1.8c-1.22-1.2-1.82-3-1.82-5.46h0V270.58h-3v-5.13h3Zm25.69,30.08h0a12.21,12.21,0,0,1-8.84-3.26,11.24,11.24,0,0,1-3.38-8.48h0v-.61a14.52,14.52,0,0,1,1.35-6.43,9.8,9.8,0,0,1,3.94-4.31,11.83,11.83,0,0,1,6.14-1.53h0a10.27,10.27,0,0,1,7.9,3.11c1.93,2.06,2.9,4.95,2.9,8.65h0v2.88h-14.7a5.34,5.34,0,0,0,1.73,3.14,5.16,5.16,0,0,0,3.47,1.14h0a6.64,6.64,0,0,0,5.48-2.46h0l3.38,4a9.52,9.52,0,0,1-3.92,3A13.3,13.3,0,0,1,355.51,289.63Zm-.83-18.91h0q-3.26,0-3.86,4.3h7.46v-.57a3.74,3.74,0,0,0-.9-2.76A3.62,3.62,0,0,0,354.68,270.72Zm13.87-5.27h6.93l.24,2.79A8.14,8.14,0,0,1,382.5,265h0c3,0,5,1.19,6.08,3.58h0a7.88,7.88,0,0,1,7-3.58h0q7.21,0,7.42,8.73h0v15.45h-7.42v-15a4.51,4.51,0,0,0-.62-2.66,2.59,2.59,0,0,0-2.23-.83h0a3.49,3.49,0,0,0-3.27,1.95h0l0,.31v16.21H382V274.25a4.78,4.78,0,0,0-.59-2.7,2.6,2.6,0,0,0-2.26-.83h0a3.54,3.54,0,0,0-3.25,1.95h0v16.52h-7.39ZM428,289.19h-7.4a8.23,8.23,0,0,1-.7-2.13h0a6.88,6.88,0,0,1-5.7,2.57h0a8.44,8.44,0,0,1-5.71-2,6.47,6.47,0,0,1-2.35-5.1h0a6.63,6.63,0,0,1,2.86-5.84c1.9-1.32,4.66-2,8.29-2h2.28v-1.25c0-2.18-1-3.27-2.83-3.27h0a2.3,2.3,0,0,0-2.63,2.59h-7.4a6.62,6.62,0,0,1,2.93-5.6,12.25,12.25,0,0,1,7.48-2.15,10.79,10.79,0,0,1,7.17,2.22,7.73,7.73,0,0,1,2.7,6.08h0v10.51a10.57,10.57,0,0,0,1,5h0Zm-12-4.82h0a4.12,4.12,0,0,0,2.3-.6,3.75,3.75,0,0,0,1.3-1.34h0v-3.79h-2.15c-2.58,0-3.86,1.15-3.86,3.47h0a2.11,2.11,0,0,0,.68,1.63A2.44,2.44,0,0,0,415.94,284.37Zm27.54-1.85h0a1.71,1.71,0,0,0-1-1.51,15.16,15.16,0,0,0-3.76-1.19,17.34,17.34,0,0,1-4.56-1.61,7.69,7.69,0,0,1-2.74-2.42,5.75,5.75,0,0,1-.95-3.27h0a6.56,6.56,0,0,1,2.7-5.39,11.07,11.07,0,0,1,7.07-2.12h0a12.35,12.35,0,0,1,7.55,2.13,6.66,6.66,0,0,1,2.85,5.6h-7.42c0-1.91-1-2.86-3-2.86h0a2.94,2.94,0,0,0-2,.65,2,2,0,0,0-.79,1.61h0a1.83,1.83,0,0,0,1,1.6,8.92,8.92,0,0,0,3.08,1,25.71,25.71,0,0,1,3.72.95h0q5.36,1.83,5.36,6.6h0a6.24,6.24,0,0,1-2.89,5.29,12.68,12.68,0,0,1-7.47,2h0a12.89,12.89,0,0,1-5.44-1.1,9,9,0,0,1-3.73-3,6.73,6.73,0,0,1-1.34-4h6.91a2.83,2.83,0,0,0,1.1,2.4,4.54,4.54,0,0,0,2.7.76h0a3.57,3.57,0,0,0,2.27-.62A2,2,0,0,0,443.48,282.52Zm22.08,7.11h0a12.18,12.18,0,0,1-8.84-3.26,11.24,11.24,0,0,1-3.38-8.48h0v-.61a14.52,14.52,0,0,1,1.35-6.43,9.84,9.84,0,0,1,3.93-4.31,11.84,11.84,0,0,1,6.15-1.53h0a10.27,10.27,0,0,1,7.9,3.11c1.93,2.06,2.9,4.95,2.9,8.65h0v2.88H460.86a5.35,5.35,0,0,0,1.74,3.14,5.12,5.12,0,0,0,3.46,1.14h0a6.66,6.66,0,0,0,5.49-2.46h0l3.38,4a9.52,9.52,0,0,1-3.92,3A13.3,13.3,0,0,1,465.56,289.63Zm-.84-18.91h0q-3.24,0-3.86,4.3h7.46v-.57a3.66,3.66,0,0,0-.9-2.76A3.59,3.59,0,0,0,464.72,270.72Zm28.53,18.47-5.18-8.84L486,282.43v6.76h-7.4V255.47H486v17.9l.74-1,5.58-6.93h8.86l-8.31,9.76,8.86,14Z" transform="translate(-81.35 -233.97)"/></svg>