<?xml version="1.0" encoding="UTF-8"?>
<svg width="497px" height="191px" viewBox="0 0 497 191" version="1.1" xmlns="http://www.w3.org/2000/svg" xmlns:xlink="http://www.w3.org/1999/xlink">
    <!-- Generator: Sketch 61.2 (89653) - https://sketch.com -->
    <title>chart</title>
    <desc>Created with Sketch.</desc>
    <defs>
        <linearGradient x1="65.0500922%" y1="50%" x2="-2.22044605e-14%" y2="50%" id="linearGradient-1">
            <stop stop-color="#FC5C22" offset="0%"></stop>
            <stop stop-color="#FF5F21" stop-opacity="0" offset="100%"></stop>
        </linearGradient>
    </defs>
    <g id="Page-1" stroke="none" stroke-width="1" fill="none" fill-rule="evenodd">
        <g id="chart" stroke="url(#linearGradient-1)" stroke-width="6">
            <polyline id="Shape-Copy" points="0 178.273414 4.15030576 178.273414 7.48488248 178.273414 10.8194592 178.273414 14.1540359 178.273414 17.4886127 178.273414 20.8231894 178.273414 24.1577661 178.273414 27.4923428 178.273414 30.4934619 178.273414 33.8280386 178.273414 35.8287847 178.273414 37.8295307 178.273414 39.4968191 179.677875 56.1734329 178.837664 69.5080096 178.533309 70.8418403 179.175257 71.8422133 178.179433 72.175671 179.429408 72.5091287 178.273414 72.8425863 179.056298 74.5098747 176.092534 75.17679 176.880369 75.8437054 178.068051 77.5109938 177.529937 79.1782821 178.069013 81.8459435 175.811385 82.5128588 177.364207 83.5132319 178.342414 85.8474356 178.516613 87.1812663 179.820676 88.515097 178.514369 88.8485546 177.730148 92.1831314 178.524511 95.5177081 179.057991 98.5188271 178.741373 100.519573 177.932163 101.519946 177.10602 102.186862 176.157917 103.85415 175.526781 104.521065 177.740811 107.855642 177.760002 108.522557 178.795415 111.857134 178.800122 114.524795 177.595216 119.193203 178.258482 122.194322 178.653973 125.528899 178.874639 128.530018 179.327511 129.196933 180.42816 134.532256 176.943685 139.200663 175.020913 141.201409 174.369215 145.536359 174.77476 146.203274 162.550078 147.870563 161.812252 149.537851 169.111074 152.872428 158.719552 156.207005 159.384799 159.208124 166.531258 163.209616 161.265249 166.544192 161.284104 169.878769 156.466608 172.54643 156.146712 174.213719 156.655246 176.88138 167.960926 179.179677 162.550078 183.514627 158.939422 186.849203 159.446411 190.18378 159.218285 193.518357 159.305027 196.519476 158.491183 199.854053 158.411755 201.705776 152.259656 205.040353 152.644904 208.374929 152.585555 208.374929 152.259656 210.042218 146.82937 216.037355 150.094861 219.371932 150.070673 222.706509 150.087036 226.041085 150.327023 228.3928 143.886313 231.393919 143.391606 234.395038 142.85205 237.729615 142.167817 241.063156 143.761163 241.063156 142.167817 248.833085 145.053407 249 143.886313 252.173235 143.932052 252.173235 141.281776 255.507812 139.681235 258.783203 136.970297 261.727482 132.484166 266.306161 134.619569 272.308399 133.069443 282.979044 128.757964 285.841326 123.771477 288.17553 122.899305 291.176649 122.880028 291.510107 123.78669 294.844683 123.379265 295.581378 114.606012 296.248293 115.447425 299.58287 115.266393 302.917447 115.22909 305.918566 105.651007 307.252396 104.988951 310.253515 104.648145 313.254634 104.372706 317.923042 104.285906 321.257619 103.982709 324.592195 104.24805 327.926772 103.981791 331.297256 98.3514704 334.631833 92.2009474 337.632952 81.8530754 340.634071 81.5688784 341.300986 79.6753824 342.968274 78.7862494 346.952254 83.0956185 347.285712 81.7528835 348.286085 79.7537175 348.953 80.5076305 349.953373 83.1582745 352.954493 82.6224925 355.288696 84.0914135 355.622154 83.2426415 356.955985 82.6562975 358.623273 82.0539245 368.232576 74.7453549 369.566406 75.3886719 370.233322 76.6066779 373.567898 76.5453329 376.902475 76.5332389 378.569764 77.0537209 381.237425 75.8791379 384.572002 75.7944799 387.906578 75.8715609 391.241155 75.6897129 394.242274 75.1833639 397.243393 74.6271819 399.911055 65.2707819 402.578716 65.3633089 405.579835 64.6324179 410.5817 59.4205529 413.582819 58.9754039 416.917396 58.5269029 418.711898 55.9951599 419.918515 54.3392909 420.458216 52.6810899 422.252719 53.3765719 422.586176 51.7300479 424.253465 54.9600419 426.254211 51.5620419 429.922245 50.9831289 430.922618 49.9593579 433.923737 49.4712229 434.590653 48.6524679 436.257941 47.8259909 437.591772 47.2189549 438.592145 44.9124829 440.592891 47.5359989 440.926348 45.9975729 442.260179 45.4091889 443.59401 46.5084389 444.594383 44.7753419 445.261298 43.3887489 446.595129 46.0912659 449.26279 44.3133689 450.263163 33.3191049 450.596621 32.4014119 451.263536 29.3706049 453.264282 28.8243319 454.598113 28.2012679 460.908203 29.3706049 477.488216 37.4645429 477.821674 35.5931939 478.155132 32.6222759 481.279297 29.3706049 485.646484 19.7621172 490.998508 38.617941 491.665423 32.887839 491.998881 31.560404 492.332339 25.654704 492.665796 19.7621172 493.332712 15.669072 493.666169 10.1888501 493.666169 0.2367095"></polyline>
        </g>
    </g>
</svg>